<svg width="74" height="54" viewBox="0 0 74 54" fill="none" xmlns="http://www.w3.org/2000/svg">
<g filter="url(#filter0_d_1:3)">
<path d="M9.66016 12.6211L9.98828 14.8711L10.4688 12.8438L13.8438 0.9375H15.7422L19.0352 12.8438L19.5039 14.9062L19.8672 12.6094L22.5156 0.9375H24.7773L20.6406 18H18.5898L15.0742 5.56641L14.8047 4.26562L14.5352 5.56641L10.8906 18H8.83984L4.71484 0.9375H6.96484L9.66016 12.6211ZM34.375 18C34.25 17.75 34.1484 17.3047 34.0703 16.6641C33.0625 17.7109 31.8594 18.2344 30.4609 18.2344C29.2109 18.2344 28.1836 17.8828 27.3789 17.1797C26.582 16.4688 26.1836 15.5703 26.1836 14.4844C26.1836 13.1641 26.6836 12.1406 27.6836 11.4141C28.6914 10.6797 30.1055 10.3125 31.9258 10.3125H34.0352V9.31641C34.0352 8.55859 33.8086 7.95703 33.3555 7.51172C32.9023 7.05859 32.2344 6.83203 31.3516 6.83203C30.5781 6.83203 29.9297 7.02734 29.4062 7.41797C28.8828 7.80859 28.6211 8.28125 28.6211 8.83594H26.4414C26.4414 8.20312 26.6641 7.59375 27.1094 7.00781C27.5625 6.41406 28.1719 5.94531 28.9375 5.60156C29.7109 5.25781 30.5586 5.08594 31.4805 5.08594C32.9414 5.08594 34.0859 5.45312 34.9141 6.1875C35.7422 6.91406 36.1719 7.91797 36.2031 9.19922V15.0352C36.2031 16.1992 36.3516 17.125 36.6484 17.8125V18H34.375ZM30.7773 16.3477C31.457 16.3477 32.1016 16.1719 32.7109 15.8203C33.3203 15.4688 33.7617 15.0117 34.0352 14.4492V11.8477H32.3359C29.6797 11.8477 28.3516 12.625 28.3516 14.1797C28.3516 14.8594 28.5781 15.3906 29.0312 15.7734C29.4844 16.1562 30.0664 16.3477 30.7773 16.3477ZM42.543 2.25V5.32031H44.9102V6.99609H42.543V14.8594C42.543 15.3672 42.6484 15.75 42.8594 16.0078C43.0703 16.2578 43.4297 16.3828 43.9375 16.3828C44.1875 16.3828 44.5312 16.3359 44.9688 16.2422V18C44.3984 18.1562 43.8438 18.2344 43.3047 18.2344C42.3359 18.2344 41.6055 17.9414 41.1133 17.3555C40.6211 16.7695 40.375 15.9375 40.375 14.8594V6.99609H38.0664V5.32031H40.375V2.25H42.543ZM52.5391 16.4648C53.3125 16.4648 53.9883 16.2305 54.5664 15.7617C55.1445 15.293 55.4648 14.707 55.5273 14.0039H57.5781C57.5391 14.7305 57.2891 15.4219 56.8281 16.0781C56.3672 16.7344 55.75 17.2578 54.9766 17.6484C54.2109 18.0391 53.3984 18.2344 52.5391 18.2344C50.8125 18.2344 49.4375 17.6602 48.4141 16.5117C47.3984 15.3555 46.8906 13.7773 46.8906 11.7773V11.4141C46.8906 10.1797 47.1172 9.08203 47.5703 8.12109C48.0234 7.16016 48.6719 6.41406 49.5156 5.88281C50.3672 5.35156 51.3711 5.08594 52.5273 5.08594C53.9492 5.08594 55.1289 5.51172 56.0664 6.36328C57.0117 7.21484 57.5156 8.32031 57.5781 9.67969H55.5273C55.4648 8.85938 55.1523 8.1875 54.5898 7.66406C54.0352 7.13281 53.3477 6.86719 52.5273 6.86719C51.4258 6.86719 50.5703 7.26562 49.9609 8.0625C49.3594 8.85156 49.0586 9.99609 49.0586 11.4961V11.9062C49.0586 13.3672 49.3594 14.4922 49.9609 15.2812C50.5625 16.0703 51.4219 16.4648 52.5391 16.4648ZM62.1836 6.85547C63.1445 5.67578 64.3945 5.08594 65.9336 5.08594C68.6133 5.08594 69.9648 6.59766 69.9883 9.62109V18H67.8203V9.60938C67.8125 8.69531 67.6016 8.01953 67.1875 7.58203C66.7812 7.14453 66.1445 6.92578 65.2773 6.92578C64.5742 6.92578 63.957 7.11328 63.4258 7.48828C62.8945 7.86328 62.4805 8.35547 62.1836 8.96484V18H60.0156V0H62.1836V6.85547ZM32.207 46H29.957V28.9375H32.207V46ZM47.7695 30.7891H42.2852V46H40.0469V30.7891H34.5742V28.9375H47.7695V30.7891Z" fill="white"/>
</g>
<defs>
<filter id="filter0_d_1:3" x="0.714844" y="0" width="73.2734" height="54" filterUnits="userSpaceOnUse" color-interpolation-filters="sRGB">
<feFlood flood-opacity="0" result="BackgroundImageFix"/>
<feColorMatrix in="SourceAlpha" type="matrix" values="0 0 0 0 0 0 0 0 0 0 0 0 0 0 0 0 0 0 127 0" result="hardAlpha"/>
<feOffset dy="4"/>
<feGaussianBlur stdDeviation="2"/>
<feComposite in2="hardAlpha" operator="out"/>
<feColorMatrix type="matrix" values="0 0 0 0 0 0 0 0 0 0 0 0 0 0 0 0 0 0 0.25 0"/>
<feBlend mode="normal" in2="BackgroundImageFix" result="effect1_dropShadow_1:3"/>
<feBlend mode="normal" in="SourceGraphic" in2="effect1_dropShadow_1:3" result="shape"/>
</filter>
</defs>
</svg>
